<?xml version="1.0" standalone="no"?>
<!DOCTYPE svg PUBLIC "-//W3C//DTD SVG 20010904//EN"
 "http://www.w3.org/TR/2001/REC-SVG-20010904/DTD/svg10.dtd">
<svg version="1.0" xmlns="http://www.w3.org/2000/svg"
 width="712.000000pt" height="712.000000pt" viewBox="0 0 712.000000 712.000000"
 preserveAspectRatio="xMidYMid meet">
<metadata>
Created by potrace 1.11, written by Peter Selinger 2001-2013
</metadata>
<g transform="translate(0.000000,712.000000) scale(0.100000,-0.100000)"
fill="#000000" stroke="none">
<path d="M3170 6572 c-140 -19 -256 -39 -258 -44 -2 -4 -20 -8 -40 -8 -20 -1
-55 -7 -77 -15 -22 -8 -52 -15 -66 -15 -15 0 -32 -7 -39 -15 -7 -8 -24 -15
-39 -15 -14 0 -35 -7 -45 -15 -11 -8 -30 -15 -42 -15 -13 0 -26 -4 -29 -10 -3
-5 -17 -10 -30 -10 -13 0 -27 -4 -30 -10 -3 -5 -14 -10 -24 -10 -10 0 -24 -7
-31 -15 -7 -8 -23 -15 -36 -15 -13 0 -24 -4 -24 -10 0 -5 -5 -10 -11 -10 -13
0 -161 -70 -169 -80 -3 -3 -21 -12 -40 -20 -19 -8 -37 -16 -40 -19 -9 -10 -44
-31 -62 -37 -10 -4 -18 -10 -18 -15 0 -5 -5 -9 -11 -9 -6 0 -30 -13 -54 -30
-24 -16 -48 -30 -53 -30 -6 0 -12 -4 -14 -8 -1 -5 -31 -28 -66 -53 -129 -90
-182 -133 -302 -244 -117 -109 -280 -282 -304 -324 -5 -9 -18 -25 -29 -36 -28
-29 -167 -234 -167 -245 0 -5 -9 -20 -21 -33 -25 -30 -37 -51 -122 -224 -38
-76 -75 -149 -82 -163 -7 -14 -18 -43 -24 -65 -7 -22 -15 -47 -18 -55 -4 -8
-7 -17 -8 -20 -1 -3 -7 -18 -13 -33 -7 -16 -12 -35 -12 -43 0 -8 -4 -14 -8
-14 -5 0 -21 -51 -36 -112 -15 -62 -31 -120 -36 -129 -12 -22 -50 -218 -53
-271 -2 -24 -6 -49 -11 -56 -4 -7 -4 -21 -1 -32 3 -11 3 -25 -1 -32 -4 -6 -9
-32 -10 -57 -2 -25 -6 -84 -9 -131 -10 -129 -8 -197 6 -305 5 -38 14 -119 19
-180 13 -153 38 -336 49 -360 5 -11 12 -41 16 -67 3 -27 10 -48 16 -48 5 0 9
-11 9 -24 0 -26 25 -113 46 -163 8 -17 14 -37 14 -45 0 -8 4 -18 9 -23 5 -6
16 -34 26 -62 9 -29 21 -55 26 -58 5 -4 9 -17 9 -30 0 -13 3 -25 7 -27 8 -3
30 -47 55 -106 7 -17 16 -32 20 -32 5 0 8 -7 8 -17 0 -9 11 -31 25 -49 14 -18
25 -39 25 -47 0 -8 9 -26 20 -40 11 -14 20 -30 20 -36 0 -6 5 -11 10 -11 6 0
10 -4 10 -10 0 -13 73 -130 97 -156 7 -7 13 -17 13 -23 0 -6 4 -11 9 -11 5 0
12 -8 16 -19 3 -10 16 -30 30 -45 13 -14 36 -43 51 -63 32 -43 61 -77 128
-147 25 -27 46 -52 46 -55 0 -10 207 -202 254 -236 23 -16 43 -32 46 -35 12
-15 192 -148 236 -175 27 -16 69 -42 94 -58 25 -15 56 -33 70 -40 14 -6 27
-14 30 -17 11 -13 150 -80 150 -73 0 5 4 3 8 -3 9 -14 116 -63 153 -71 16 -3
29 -9 29 -14 0 -5 8 -9 18 -9 9 0 30 -7 45 -15 16 -8 61 -24 100 -35 40 -12
81 -25 92 -30 28 -13 163 -45 270 -65 50 -9 98 -21 107 -26 10 -5 24 -6 33 -3
8 4 21 1 29 -5 7 -6 21 -9 30 -5 9 3 24 3 34 -1 17 -7 24 -8 172 -20 176 -15
384 -6 600 26 113 16 236 34 273 39 38 5 74 13 80 18 7 6 31 13 55 17 24 4 56
13 70 21 15 8 37 14 49 14 12 0 25 5 28 10 3 6 17 10 31 10 13 0 32 4 42 10
24 13 83 37 110 45 12 3 22 11 22 16 0 5 9 9 20 9 11 0 28 4 38 9 9 5 31 14
47 21 17 7 37 16 45 21 8 4 61 31 118 60 56 29 102 56 102 61 0 4 6 8 14 8 28
0 376 241 376 260 0 6 6 10 13 10 17 0 98 72 235 210 154 155 183 187 248 275
137 185 228 331 311 500 19 39 43 87 54 107 10 20 19 44 19 52 0 9 3 16 8 16
4 0 13 19 20 43 8 23 20 56 27 72 25 54 75 216 70 225 -3 4 -1 10 3 12 8 3 42
124 44 158 0 8 4 20 8 25 15 20 74 468 66 501 -3 12 -3 25 2 28 12 7 1 384
-13 405 -2 5 -9 70 -15 146 -6 75 -14 145 -19 154 -5 9 -14 49 -19 89 -6 40
-15 79 -21 86 -6 7 -14 34 -17 60 -4 26 -11 49 -15 52 -5 3 -9 18 -9 33 0 15
-7 36 -15 47 -8 10 -15 29 -15 41 0 12 -6 34 -14 50 -20 39 -33 71 -47 118 -7
22 -19 47 -26 56 -7 8 -13 23 -13 32 0 9 -4 17 -10 17 -5 0 -10 6 -10 14 0 25
-155 318 -171 324 -5 2 -9 10 -9 18 0 8 -4 14 -10 14 -5 0 -10 5 -10 10 0 13
-128 204 -166 248 -16 18 -51 60 -79 94 -64 79 -265 281 -330 333 -27 22 -52
42 -55 46 -3 3 -23 18 -45 35 -22 16 -63 48 -91 70 -56 45 -188 132 -213 142
-9 3 -29 15 -46 27 -42 30 -291 155 -310 155 -8 0 -15 5 -15 11 0 6 -7 9 -15
5 -8 -3 -15 -1 -15 4 0 6 -6 10 -12 10 -7 0 -26 7 -42 15 -16 8 -54 22 -85 31
-31 9 -61 20 -66 25 -6 4 -42 15 -80 25 -39 9 -74 21 -80 25 -5 5 -24 9 -41 9
-18 0 -36 5 -40 11 -3 6 -17 8 -30 5 -13 -4 -24 -3 -24 2 0 8 -150 38 -315 63
-38 6 -176 12 -305 14 -224 3 -247 1 -490 -33z"/>
</g>
</svg>
